# xmcd CD Database Entry
#
# Track frame offsets:
# 150
# 18415
# 40645
# 61942
# 79842
# 98335
# 118400
# 139830
# 159320
# 178025
# 199020
#
# Disc length: 3007 seconds
#
# Revision: 1
# Processed by: cddbd v1.5PL3 Copyright (c) Steve Scherf et al.
# Submitted via: tcd 2.0b
#
DISCID=870bbd0b
DTITLE=Robert Cray - Midnight Stroll
DYEAR=1900
DGENRE=
TTITLE0=The Forecast (Calls For Rain)
TTITLE1=These Things
TTITLE2=My Problem
TTITLE3=Labor Of Love
TTITLE4=Bouncin' Back
TTITLE5=Consequences
TTITLE6=The Things You Do To Me
TTITLE7=Walk Around Time
TTITLE8=Move A Mountain
TTITLE9=Holdin' Court
TTITLE10=Midnight Stroll
EXTD=
EXTT0=
EXTT1=
EXTT2=
EXTT3=
EXTT4=
EXTT5=
EXTT6=
EXTT7=
EXTT8=
EXTT9=
EXTT10=
PLAYORDER=
